<?xml version="1.0" encoding="UTF-8" standalone="no"?>
<svg
   width="40"
   height="14"
   id="svg4729"
   version="1.1"
   xmlns:xlink="http://www.w3.org/1999/xlink"
   xmlns="http://www.w3.org/2000/svg"
   xmlns:svg="http://www.w3.org/2000/svg"
   xmlns:rdf="http://www.w3.org/1999/02/22-rdf-syntax-ns#"
   xmlns:cc="http://creativecommons.org/ns#"
   xmlns:dc="http://purl.org/dc/elements/1.1/">
  <defs
     id="defs4731">
    <linearGradient
       id="linearGradient3924-4">
      <stop
         id="stop3926-8"
         style="stop-color:#ffffff;stop-opacity:1;"
         offset="0" />
      <stop
         offset="0.06316455"
         style="stop-color:#ffffff;stop-opacity:0.23529412;"
         id="stop3928-5" />
      <stop
         id="stop3930-6-4"
         style="stop-color:#ffffff;stop-opacity:0.15686275;"
         offset="0.95056331" />
      <stop
         id="stop3932-25"
         style="stop-color:#ffffff;stop-opacity:0.39215687;"
         offset="1" />
    </linearGradient>
    <linearGradient
       xlink:href="#linearGradient3924-4"
       id="linearGradient1529"
       gradientUnits="userSpaceOnUse"
       gradientTransform="matrix(2.6263817,0,0,0.43555485,-11.945112,-0.895545)"
       x1="14.447668"
       y1="6.6480026"
       x2="14.447668"
       y2="24.964697" />
    <filter
       height="1.1767287"
       y="-0.088364332"
       width="1.052541"
       x="-0.026270477"
       id="filter4818"
       style="color-interpolation-filters:sRGB">
      <feGaussianBlur
         id="feGaussianBlur4820"
         stdDeviation="0.4050032" />
    </filter>
  </defs>
  <metadata
     id="metadata4734">
    <rdf:RDF>
      <cc:Work
         rdf:about="">
        <dc:format>image/svg+xml</dc:format>
        <dc:type
           rdf:resource="http://purl.org/dc/dcmitype/StillImage" />
      </cc:Work>
    </rdf:RDF>
  </metadata>
  <path
     style="color:#000000;display:inline;overflow:visible;visibility:visible;opacity:0.15;fill:#000000;fill-opacity:1;fill-rule:nonzero;stroke:none;stroke-width:0.999922;stroke-linecap:butt;stroke-linejoin:miter;stroke-miterlimit:4;stroke-dasharray:none;stroke-dashoffset:0;stroke-opacity:1;marker:none;filter:url(#filter4818);enable-background:accumulate"
     d="m 3.5000077,1.499995 c -1.108,0 -2,0.892 -2,2 v 7 c 0,1.108 0.892,2 2,2 H 36.500008 c 1.108,0 2,-0.892 2,-2 v -7 c 0,-1.108 -0.892,-2 -2,-2 z"
     id="path1027" />
  <path
     id="rect845"
     d="m 3.4999777,0.500065 c -1.108,0 -2,0.892 -2,2 v 7 c 0,1.108 0.892,2 2,2 H 36.499978 c 1.108,0 2,-0.892 2,-2 v -7 c 0,-1.108 -0.892,-2 -2,-2 z"
     style="color:#000000;display:inline;overflow:visible;visibility:visible;opacity:0.745;vector-effect:none;fill:none;fill-opacity:1;fill-rule:nonzero;stroke:#000000;stroke-width:1;stroke-linecap:butt;stroke-linejoin:miter;stroke-miterlimit:4;stroke-dasharray:none;stroke-dashoffset:0;stroke-opacity:1;marker:none;enable-background:accumulate" />
  <path
     style="color:#000000;display:inline;overflow:visible;visibility:visible;opacity:1;vector-effect:none;fill:#4d4d4d;fill-opacity:1;fill-rule:nonzero;stroke:none;stroke-width:0.975822;stroke-linecap:butt;stroke-linejoin:miter;stroke-miterlimit:4;stroke-dasharray:none;stroke-dashoffset:0;stroke-opacity:0.502164;marker:none;enable-background:accumulate"
     id="rect845-6"
     d="m 3.4990477,1.013015 c -0.83195,0 -1.48632,0.65437 -1.48632,1.48632 v 7 c 0,0.83196 0.65437,1.48633 1.48632,1.48633 H 36.499048 c 0.83196,0 1.48633,-0.65437 1.48633,-1.48633 v -7 c 0,-0.83195 -0.65437,-1.48632 -1.48633,-1.48632 z" />
  <path
     id="rect1527"
     d="M 3.5248677,1.500015 H 36.462898 c 0.554,0 1.03707,0.446 1.03707,1 v 7.00001 c 0,0.554 -0.446,1 -1,1 H 3.4999677 c -0.554,0 -1,-0.446 -1,-1 v -7.00001 c 0,-0.554 0.4709,-1 1.0249,-1 z"
     style="opacity:0.15;fill:none;stroke:url(#linearGradient1529);stroke-width:1;stroke-linecap:round;stroke-linejoin:round;stroke-miterlimit:4;stroke-dasharray:none;stroke-dashoffset:0;stroke-opacity:1" />
</svg>
