<?xml version="1.0" encoding="UTF-8" standalone="no"?>
<svg
   version="1.1"
   id="svg4729"
   height="14"
   width="40"
   xmlns:xlink="http://www.w3.org/1999/xlink"
   xmlns="http://www.w3.org/2000/svg"
   xmlns:svg="http://www.w3.org/2000/svg"
   xmlns:rdf="http://www.w3.org/1999/02/22-rdf-syntax-ns#"
   xmlns:cc="http://creativecommons.org/ns#"
   xmlns:dc="http://purl.org/dc/elements/1.1/">
  <defs
     id="defs4731">
    <linearGradient
       y2="80.117599"
       x2="14.066927"
       y1="6.6480942"
       x1="14.066927"
       gradientTransform="matrix(2.6263817,0,0,0.43555485,351.27065,412.22031)"
       gradientUnits="userSpaceOnUse"
       id="linearGradient9678"
       xlink:href="#linearGradient3924-4" />
    <linearGradient
       id="linearGradient3924-4">
      <stop
         offset="0"
         style="stop-color:#ffffff;stop-opacity:1;"
         id="stop3926-8" />
      <stop
         id="stop3928-5"
         style="stop-color:#ffffff;stop-opacity:0.23529412;"
         offset="0.06316455" />
      <stop
         offset="0.95056331"
         style="stop-color:#ffffff;stop-opacity:0.15686275;"
         id="stop3930-6-4" />
      <stop
         offset="1"
         style="stop-color:#ffffff;stop-opacity:0.39215687;"
         id="stop3932-25" />
    </linearGradient>
    <filter
       height="1.5880001"
       y="-0.294"
       width="1.1147317"
       x="-0.057365853"
       id="filter1523"
       style="color-interpolation-filters:sRGB">
      <feGaussianBlur
         id="feGaussianBlur1525"
         stdDeviation="0.98" />
    </filter>
    <linearGradient
       y2="24.827114"
       x2="14.447668"
       y1="6.6480026"
       x1="14.447668"
       gradientTransform="matrix(2.6263817,0,0,0.43555485,-11.945112,-0.89557)"
       gradientUnits="userSpaceOnUse"
       id="linearGradient1529"
       xlink:href="#linearGradient3924-4" />
    <filter
       style="color-interpolation-filters:sRGB"
       id="filter4700"
       x="-0.03035295"
       width="1.0607059"
       y="-0.044228554"
       height="1.0884571">
      <feGaussianBlur
         stdDeviation="0.6450012"
         id="feGaussianBlur4702" />
    </filter>
    <filter
       style="color-interpolation-filters:sRGB"
       id="filter4733"
       x="-0.07082355"
       width="1.1416471"
       y="-0.10319996"
       height="1.2063999">
      <feGaussianBlur
         stdDeviation="1.5050028"
         id="feGaussianBlur4735" />
    </filter>
    <filter
       style="color-interpolation-filters:sRGB"
       id="filter4733-6"
       x="-0.07082355"
       width="1.1416471"
       y="-0.10319996"
       height="1.2063999">
      <feGaussianBlur
         stdDeviation="1.5050028"
         id="feGaussianBlur4735-2" />
    </filter>
    <filter
       style="color-interpolation-filters:sRGB"
       id="filter4700-6"
       x="-0.03035295"
       width="1.0607059"
       y="-0.044228554"
       height="1.0884571">
      <feGaussianBlur
         stdDeviation="0.6450012"
         id="feGaussianBlur4702-1" />
    </filter>
    <linearGradient
       xlink:href="#linearGradient3924-4"
       id="linearGradient4798"
       gradientUnits="userSpaceOnUse"
       gradientTransform="matrix(2.6263817,0,0,0.43555485,351.27065,412.22031)"
       x1="14.066927"
       y1="6.6480942"
       x2="14.066927"
       y2="80.117599" />
    <filter
       style="color-interpolation-filters:sRGB"
       id="filter4818"
       x="-0.026270477"
       width="1.052541"
       y="-0.088364332"
       height="1.1767287">
      <feGaussianBlur
         stdDeviation="0.4050032"
         id="feGaussianBlur4820" />
    </filter>
  </defs>
  <metadata
     id="metadata4734">
    <rdf:RDF>
      <cc:Work
         rdf:about="">
        <dc:format>image/svg+xml</dc:format>
        <dc:type
           rdf:resource="http://purl.org/dc/dcmitype/StillImage" />
      </cc:Work>
    </rdf:RDF>
  </metadata>
  <path
     id="path1027"
     d="m 3.5000077,1.49997 c -1.108,0 -2,0.892 -2,2 v 7 c 0,1.108 0.892,2 2,2 H 36.500008 c 1.108,0 2,-0.892 2,-2 v -7 c 0,-1.108 -0.892,-2 -2,-2 z"
     style="color:#000000;display:inline;overflow:visible;visibility:visible;opacity:0.15;fill:#000000;fill-opacity:1;fill-rule:nonzero;stroke:none;stroke-width:0.999922;stroke-linecap:butt;stroke-linejoin:miter;stroke-miterlimit:4;stroke-dasharray:none;stroke-dashoffset:0;stroke-opacity:1;marker:none;filter:url(#filter4818);enable-background:accumulate" />
  <path
     style="color:#000000;display:inline;overflow:visible;visibility:visible;opacity:0.15;vector-effect:none;fill:none;fill-opacity:1;fill-rule:nonzero;stroke:#000000;stroke-width:0.999922;stroke-linecap:butt;stroke-linejoin:miter;stroke-miterlimit:4;stroke-dasharray:none;stroke-dashoffset:0;stroke-opacity:1;marker:none;enable-background:accumulate"
     d="m 3.4999777,0.50004 c -1.108,0 -2,0.892 -2,2 v 7 c 0,1.108 0.892,2 2,2 H 36.499978 c 1.108,0 2,-0.892 2,-2 v -7 c 0,-1.108 -0.892,-2 -2,-2 z"
     id="rect845" />
  <path
     d="m 3.4990477,1.01299 c -0.83195,0 -1.48632,0.65437 -1.48632,1.48632 v 7 c 0,0.83196 0.65437,1.48633 1.48632,1.48633 H 36.499048 c 0.83196,0 1.48633,-0.65437 1.48633,-1.48633 v -7 c 0,-0.83195 -0.65437,-1.48632 -1.48633,-1.48632 z"
     id="rect845-6"
     style="color:#000000;display:inline;overflow:visible;visibility:visible;opacity:0.95;fill:#fafafa;fill-opacity:1;fill-rule:nonzero;stroke:none;stroke-width:0.999922;stroke-linecap:butt;stroke-linejoin:miter;stroke-miterlimit:4;stroke-dasharray:none;stroke-dashoffset:0;stroke-opacity:1;marker:none;enable-background:accumulate" />
  <path
     style="opacity:1;fill:none;stroke:url(#linearGradient1529);stroke-width:1;stroke-linecap:round;stroke-linejoin:round;stroke-miterlimit:4;stroke-dasharray:none;stroke-dashoffset:0;stroke-opacity:1"
     d="M 3.5248677,1.49999 H 36.462898 c 0.554,0 1.03707,0.446 1.03707,1 V 9.5 c 0,0.554 -0.446,1 -1,1 H 3.4999677 c -0.554,0 -1,-0.446 -1,-1 V 2.49999 c 0,-0.554 0.4709,-1 1.0249,-1 z"
     id="rect1527" />
</svg>
