<?xml version="1.0" encoding="UTF-8" standalone="no"?>
<svg
   version="1.1"
   id="svg4729"
   height="55"
   width="40"
   xmlns:xlink="http://www.w3.org/1999/xlink"
   xmlns="http://www.w3.org/2000/svg"
   xmlns:svg="http://www.w3.org/2000/svg"
   xmlns:rdf="http://www.w3.org/1999/02/22-rdf-syntax-ns#"
   xmlns:cc="http://creativecommons.org/ns#"
   xmlns:dc="http://purl.org/dc/elements/1.1/">
  <defs
     id="defs4731">
    <linearGradient
       id="linearGradient5063">
      <stop
         id="stop5055"
         style="stop-color:#ffffff;stop-opacity:1;"
         offset="0" />
      <stop
         offset="0.19461967"
         style="stop-color:#ffffff;stop-opacity:0.23529412;"
         id="stop5057" />
      <stop
         id="stop5059"
         style="stop-color:#ffffff;stop-opacity:0.15686275;"
         offset="0.95056331" />
      <stop
         id="stop5061"
         style="stop-color:#ffffff;stop-opacity:0.39215687;"
         offset="1" />
    </linearGradient>
    <linearGradient
       id="linearGradient3924-4">
      <stop
         offset="0"
         style="stop-color:#ffffff;stop-opacity:1;"
         id="stop3926-8" />
      <stop
         id="stop3928-5"
         style="stop-color:#ffffff;stop-opacity:0.23529412;"
         offset="0.06316455" />
      <stop
         offset="0.95056331"
         style="stop-color:#ffffff;stop-opacity:0.15686275;"
         id="stop3930-6-4" />
      <stop
         offset="1"
         style="stop-color:#ffffff;stop-opacity:0.39215687;"
         id="stop3932-25" />
    </linearGradient>
    <filter
       height="1.5880001"
       y="-0.294"
       width="1.1147317"
       x="-0.057365853"
       id="filter1523"
       style="color-interpolation-filters:sRGB">
      <feGaussianBlur
         id="feGaussianBlur1525"
         stdDeviation="0.98" />
    </filter>
    <linearGradient
       y2="93.893044"
       x2="14.447668"
       y1="6.6480026"
       x1="14.447668"
       gradientTransform="matrix(2.6263817,0,0,0.43555485,-11.945112,10.104454)"
       gradientUnits="userSpaceOnUse"
       id="linearGradient1529"
       xlink:href="#linearGradient3924-4" />
    <filter
       style="color-interpolation-filters:sRGB"
       id="filter4733-6"
       x="-0.07082355"
       width="1.1416471"
       y="-0.10319996"
       height="1.2063999">
      <feGaussianBlur
         stdDeviation="1.5050028"
         id="feGaussianBlur4735-2" />
    </filter>
    <filter
       style="color-interpolation-filters:sRGB"
       id="filter4700-6"
       x="-0.03035295"
       width="1.0607059"
       y="-0.044228554"
       height="1.0884571">
      <feGaussianBlur
         stdDeviation="0.6450012"
         id="feGaussianBlur4702-1" />
    </filter>
    <linearGradient
       xlink:href="#linearGradient3924-4"
       id="linearGradient4798"
       gradientUnits="userSpaceOnUse"
       gradientTransform="matrix(2.6263817,0,0,0.43555485,351.27065,412.22031)"
       x1="14.066927"
       y1="6.6480942"
       x2="14.066927"
       y2="80.117599" />
    <filter
       style="color-interpolation-filters:sRGB"
       id="filter4818"
       x="-0.026270477"
       width="1.052541"
       y="-0.022090762"
       height="1.0441815">
      <feGaussianBlur
         stdDeviation="0.4050032"
         id="feGaussianBlur4820" />
    </filter>
    <linearGradient
       xlink:href="#linearGradient5063"
       id="linearGradient5053"
       x1="438.65228"
       y1="466.57907"
       x2="438.65228"
       y2="473.27878"
       gradientUnits="userSpaceOnUse"
       gradientTransform="matrix(0.98039219,0,0,0.9,-352.08409,-344.00433)" />
    <filter
       style="color-interpolation-filters:sRGB"
       id="filter4733-3"
       x="-0.07082355"
       width="1.1416471"
       y="-0.10319996"
       height="1.2063999">
      <feGaussianBlur
         stdDeviation="1.5050028"
         id="feGaussianBlur4735-6" />
    </filter>
    <filter
       style="color-interpolation-filters:sRGB"
       id="filter4700-7"
       x="-0.03035295"
       width="1.0607059"
       y="-0.044228554"
       height="1.0884571">
      <feGaussianBlur
         stdDeviation="0.6450012"
         id="feGaussianBlur4702-5" />
    </filter>
    <linearGradient
       xlink:href="#linearGradient3924-4"
       id="linearGradient923"
       gradientUnits="userSpaceOnUse"
       gradientTransform="matrix(2.6263817,0,0,0.43555485,351.27065,412.22031)"
       x1="14.066927"
       y1="6.6480942"
       x2="14.066927"
       y2="80.117599" />
    <filter
       height="1.0441815"
       y="-0.022090763"
       width="1.052541"
       x="-0.026270477"
       id="filter4818-3"
       style="color-interpolation-filters:sRGB">
      <feGaussianBlur
         id="feGaussianBlur4820-6"
         stdDeviation="0.4050032" />
    </filter>
    <linearGradient
       xlink:href="#linearGradient3924-4"
       id="linearGradient1529-7"
       gradientUnits="userSpaceOnUse"
       gradientTransform="matrix(2.6263817,0,0,0.43555485,57.05491,13.10443)"
       x1="14.447668"
       y1="6.6480026"
       x2="14.447668"
       y2="93.893044" />
    <filter
       style="color-interpolation-filters:sRGB"
       id="filter1523-2"
       x="-0.057365853"
       width="1.1147317"
       y="-0.294"
       height="1.5880001">
      <feGaussianBlur
         stdDeviation="0.98"
         id="feGaussianBlur1525-9" />
    </filter>
  </defs>
  <metadata
     id="metadata4734">
    <rdf:RDF>
      <cc:Work
         rdf:about="">
        <dc:format>image/svg+xml</dc:format>
        <dc:type
           rdf:resource="http://purl.org/dc/dcmitype/StillImage" />
      </cc:Work>
    </rdf:RDF>
  </metadata>
  <path
     id="path1027"
     d="m 28.500008,9.4993539 c -0.25562,0 -0.51116,0.0991 -0.70703,0.295 l -2.29297,2.7056401 H 3.5000077 c -1.108,0 -2,0.892 -2,2 v 37 c 0,1.108 0.892,2 2,2 H 36.500008 c 1.108,0 2,-0.892 2,-2 v -37 c 0,-1.108 -0.892,-2 -2,-2 h -5 l -2.29297,-2.7056401 c -0.19587,-0.19587 -0.45141,-0.295 -0.70703,-0.295 z"
     style="color:#000000;display:inline;overflow:visible;visibility:visible;opacity:0.15;fill:#000000;fill-opacity:1;fill-rule:nonzero;stroke:none;stroke-width:0.999922;stroke-linecap:butt;stroke-linejoin:miter;stroke-miterlimit:4;stroke-dasharray:none;stroke-dashoffset:0;stroke-opacity:1;marker:none;filter:url(#filter4818);enable-background:accumulate" />
  <path
     style="color:#000000;display:inline;overflow:visible;visibility:visible;opacity:0.745;vector-effect:none;fill:none;fill-opacity:1;fill-rule:nonzero;stroke:#000000;stroke-width:1;stroke-linecap:butt;stroke-linejoin:miter;stroke-miterlimit:4;stroke-dasharray:none;stroke-dashoffset:0;stroke-opacity:1;marker:none;enable-background:accumulate"
     d="m 28.499978,8.4994239 c -0.25562,0 -0.51116,0.0991 -0.70703,0.295 l -2.29297,2.7056401 H 3.4999777 c -1.108,0 -2,0.892 -2,2 v 37 c 0,1.108 0.892,2 2,2 H 36.499978 c 1.108,0 2,-0.892 2,-2 v -37 c 0,-1.108 -0.892,-2 -2,-2 h -5 l -2.29297,-2.7056401 c -0.19587,-0.19587 -0.45141,-0.295 -0.70703,-0.295 z"
     id="rect845" />
  <path
     d="m 28.499048,9.0130139 c -0.12134,0 -0.24148,0.046 -0.33984,0.14257 l -2.26758,2.6757901 a 0.51438915,0.51438915 0 0 1 -0.39258,0.18164 H 3.4990477 c -0.83195,0 -1.48632,0.65437 -1.48632,1.48632 v 37 c 0,0.83196 0.65437,1.48633 1.48632,1.48633 H 36.499048 c 0.83196,0 1.48633,-0.65437 1.48633,-1.48633 v -37 c 0,-0.83195 -0.65437,-1.48632 -1.48633,-1.48632 h -5 a 0.51438915,0.51438915 0 0 1 -0.39257,-0.18164 l -2.26758,-2.6757901 c -0.0984,-0.0966 -0.21854,-0.14257 -0.33985,-0.14257 z"
     id="rect845-6"
     style="color:#000000;display:inline;overflow:visible;visibility:visible;opacity:1;vector-effect:none;fill:#4d4d4d;fill-opacity:1;fill-rule:nonzero;stroke:none;stroke-width:0.975822;stroke-linecap:butt;stroke-linejoin:miter;stroke-miterlimit:4;stroke-dasharray:none;stroke-dashoffset:0;stroke-opacity:0.502164;marker:none;enable-background:accumulate" />
  <path
     style="opacity:0.15;fill:none;stroke:url(#linearGradient1529);stroke-width:1;stroke-linecap:round;stroke-linejoin:round;stroke-miterlimit:4;stroke-dasharray:none;stroke-dashoffset:0;stroke-opacity:1"
     d="M 3.5248677,12.500014 H 25.999978 l 2.5,-2.9999901 2.5,2.9999901 h 5.46292 c 0.554,0 1.03707,0.446 1.03707,1 v 37.00001 c 0,0.554 -0.446,1 -1,1 H 3.4999677 c -0.554,0 -1,-0.446 -1,-1 v -37.00001 c 0,-0.554 0.4709,-1 1.0249,-1 z"
     id="rect1527" />
  <g
     style="color:#bebebe;fill:#abacae;stroke-width:2.41667"
     transform="matrix(0.4137931,0,0,0.4137931,-96.036912,86.900689)"
     id="g5339">
    <path
       d="m 301,-210.01 a 1,1 0 0 0 -1,1 v 0.01 c -1.764,0.456 -2.998,2.168 -3,3.99 0,0 0,5 -1.66,5.622 -0.016,0.01 -0.023,0.03 -0.04,0.043 a 0.726,0.726 0 0 0 -0.161,0.175 c -0.018,0.027 -0.039,0.048 -0.053,0.077 a 0.738,0.738 0 0 0 -0.086,0.334 c 0,0.415 0.335,0.75 0.75,0.75 h 10.5 c 0.416,0 0.75,-0.335 0.75,-0.75 a 0.738,0.738 0 0 0 -0.086,-0.334 c -0.014,-0.03 -0.035,-0.05 -0.052,-0.077 a 0.725,0.725 0 0 0 -0.162,-0.175 c -0.016,-0.012 -0.023,-0.033 -0.04,-0.043 -1.66,-0.622 -1.66,-5.622 -1.66,-5.622 -0.002,-1.822 -1.235,-3.534 -3,-3.99 v -0.01 a 1,1 0 0 0 -1,-1 z m -1.933,13 a 2,2 0 0 0 1.933,1.5 2,2 0 0 0 1.936,-1.5 z"
       overflow="visible"
       style="overflow:visible;isolation:auto;mix-blend-mode:normal;fill:#abacae;stroke-width:2.41667;marker:none"
       id="path5337" />
  </g>
  <path
     id="rect4584"
     d="m 7.9999777,15.999999 c -1.108,0 -2,0.892 -2,2 v 2 c 0,1.108 0.892,2 2,2 h 2 c 1.1080003,0 2.0000003,-0.892 2.0000003,-2 v -2 c 0,-1.108 -0.892,-2 -2.0000003,-2 z m 6.5000003,1 c -0.277,0 -0.5,0.223 -0.5,0.5 0,0.277 0.223,0.5 0.5,0.5 h 16 c 0.277,0 0.5,-0.223 0.5,-0.5 0,-0.277 -0.223,-0.5 -0.5,-0.5 z m 0,3 c -0.277004,0 -0.5,0.222996 -0.5,0.5 0,0.277004 0.222996,0.5 0.5,0.5 h 11 c 0.277004,0 0.5,-0.222996 0.5,-0.5 0,-0.277004 -0.222996,-0.5 -0.5,-0.5 z m -6.5000003,5 c -1.108,0 -2,0.892 -2,2 v 2 c 0,1.108 0.892,2 2,2 h 2 c 1.1080003,0 2.0000003,-0.892 2.0000003,-2 v -2 c 0,-1.108 -0.892,-2 -2.0000003,-2 z m 6.5000003,1 c -0.277,0 -0.5,0.223 -0.5,0.5 0,0.277 0.223,0.5 0.5,0.5 h 10 c 0.277,0 0.5,-0.223 0.5,-0.5 0,-0.277 -0.223,-0.5 -0.5,-0.5 z m 0,3 c -0.277004,0 -0.5,0.222996 -0.5,0.5 0,0.277004 0.222996,0.5 0.5,0.5 h 18 c 0.277,0 0.5,-0.222996 0.5,-0.5 0,-0.277004 -0.223,-0.5 -0.5,-0.5 z m -6.5000003,5 c -1.108,0 -2,0.892 -2,2 v 2 c 0,1.108 0.892,2 2,2 h 2 c 1.1080003,0 2.0000003,-0.892 2.0000003,-2 v -2 c 0,-1.108 -0.892,-2 -2.0000003,-2 z m 6.5000003,1 c -0.277,0 -0.5,0.223 -0.5,0.5 0,0.277 0.223,0.5 0.5,0.5 h 13 c 0.277,0 0.5,-0.223 0.5,-0.5 0,-0.277 -0.223,-0.5 -0.5,-0.5 z m 0,3 c -0.277004,0 -0.5,0.222996 -0.5,0.5 0,0.277004 0.222996,0.5 0.5,0.5 h 6 c 0.277004,0 0.5,-0.222996 0.5,-0.5 0,-0.277004 -0.222996,-0.5 -0.5,-0.5 z m -6.5000003,5 c -1.108,0 -2,0.892 -2,2 v 2 c 0,1.108 0.892,2 2,2 h 2 c 1.1080003,0 2.0000003,-0.892 2.0000003,-2 v -2 c 0,-1.108 -0.892,-2 -2.0000003,-2 z m 6.5000003,1 c -0.277,0 -0.5,0.223 -0.5,0.5 0,0.277 0.223,0.5 0.5,0.5 h 16 c 0.277,0 0.5,-0.223 0.5,-0.5 0,-0.277 -0.223,-0.5 -0.5,-0.5 z m 0,3 c -0.277004,0 -0.5,0.222996 -0.5,0.5 0,0.277004 0.222996,0.5 0.5,0.5 h 20 c 0.277,0 0.5,-0.222996 0.5,-0.5 0,-0.277004 -0.223,-0.5 -0.5,-0.5 z"
     style="color:#000000;display:inline;overflow:visible;visibility:visible;opacity:1;vector-effect:none;fill:#abacae;fill-opacity:1;fill-rule:nonzero;stroke:none;stroke-width:1;stroke-linecap:butt;stroke-linejoin:miter;stroke-miterlimit:4;stroke-dasharray:none;stroke-dashoffset:0;stroke-opacity:1;marker:none;enable-background:accumulate" />
</svg>
